# xmcd
#
# Track frame offsets:
#	150
#	16825
#	31500
#	47920
#	61525
#
# Disc length: 1071 seconds
#
# Revision: 1
# Processed by: cddbd v1.5.2PL0 Copyright (c) Steve Scherf et al.
# Submitted via: audiograbber 1.83.01
#
DISCID=2b042d05
DTITLE=Nänny-Klaani - Otto Ja Anna Nännyn Kolmas Hääyö (EP)
DYEAR=1996
DGENRE=Pop
TTITLE0=Pidempi Ikävä (Remix)
TTITLE1=Ruususen Uni
TTITLE2=Posket Lommolla Mikkelissä
TTITLE3=Pitkä Ikävä
TTITLE4=Kolmas Hääyö
EXTD=TR.
EXTT0=
EXTT1=
EXTT2=
EXTT3=
EXTT4=
PLAYORDER=
